#!OML:ASF E:\motion texture\Top Level 1\Subject 1\Session 1\male.ASF
:FULLY-SPECIFIED
:DEGREES
317
root 6.27286 15.712 2.11715 70.1504 -52.4494 -29.6092
lowerback 34.6901 -0.681984 -0.583441
upperback 15.7857 -2.45073 -3.8991
thorax -0.422414 -1.49724 -3.0119
lowerneck -12.3131 5.73715 -3.19007
upperneck -5.91413 8.1934 5.29602
head -0.171319 4.23536 2.49991
rclavicle 4.45278e-014 6.55989e-014
rhumerus 9.36597 13.2835 -85.5483
rradius 45.7484
rwrist 5.97466
rhand -23.2061 -28.1816
rfingers 7.12502
rthumb 3.24407 -58.1367
lclavicle 4.45278e-014 6.55989e-014
lhumerus 48.3964 28.4236 60.818
lradius 25.8703
lwrist -12.2613
lhand -13.8488 36.6675
lfingers 7.12502
lthumb 12.2749 66.2872
rfemur -66.2607 -7.98228 45.9408
rtibia 65.0072
rfoot -29.6704 -16.1054
rtoes -19.5317
lfemur -97.1334 15.9958 7.37951
ltibia 42.6478
lfoot 2.44774 7.55623
ltoes -12.2141
318
root 6.09951 15.6891 2.16338 70.3032 -51.8901 -29.2454
lowerback 34.6585 -0.753801 -0.674694
upperback 15.7697 -2.55538 -4.09143
thorax -0.442025 -1.53501 -3.13277
lowerneck -12.3666 5.61502 -3.27055
upperneck -6.12926 8.05604 5.76318
head -0.247515 4.16889 2.66328
rclavicle 3.49861e-014 1.00585e-013
rhumerus 9.17285 13.3658 -85.837
rradius 46.2139
rwrist 5.73945
rhand -23.2985 -28.209
rfingers 7.12502
rthumb 3.15482 -58.1654
lclavicle 3.49861e-014 1.00585e-013
lhumerus 50.4191 28.9737 61.6871
lradius 24.8473
lwrist -13.179
lhand -14.184 37.1321
lfingers 7.12502
lthumb 11.9517 66.7709
rfemur -66.2339 -7.92772 46.293
rtibia 65.2826
rfoot -29.7513 -16.4552
rtoes -20.0786
lfemur -97.904 16.1081 7.08627
ltibia 42.8078
lfoot 2.96805 7.30373
ltoes -11.5461
319
root 5.9256 15.6688 2.21265 70.4577 -51.3434 -28.8818
lowerback 34.6391 -0.832466 -0.762052
upperback 15.7489 -2.66758 -4.2856
thorax -0.47211 -1.57607 -3.25487
lowerneck -12.4161 5.48113 -3.35693
upperneck -6.35134 7.90514 6.23611
head -0.325932 4.09486 2.83079
rclavicle -4.45278e-014 -4.69132e-014
rhumerus 8.96211 13.4594 -86.1266
rradius 46.6747
rwrist 5.50962
rhand -23.3662 -28.2238
rfingers 7.12502
rthumb 3.08946 -58.1812
lclavicle -4.45278e-014 -4.69132e-014
lhumerus 52.4378 29.5193 62.674
lradius 23.8266
lwrist -14.2015
lhand -14.4961 37.5791
lfingers 7.12502
lthumb 11.6507 67.2352
rfemur -66.2077 -7.8676 46.6159
rtibia 65.5516
rfoot -29.7623 -16.7654
rtoes -20.6015
lfemur -98.6653 16.2012 6.76085
ltibia 43.0677
lfoot 3.44529 7.03246
ltoes -10.8696
320
root 5.75128 15.6511 2.26483 70.6101 -50.8097 -28.5175
lowerback 34.6347 -0.917151 -0.845076
upperback 15.7237 -2.78638 -4.48006
thorax -0.51337 -1.62003 -3.37699
lowerneck -12.462 5.3343 -3.45026
upperneck -6.58077 7.73929 6.71586
head -0.406551 4.01254 3.00312
rclavicle 6.36111e-015 -3.49861e-014
rhumerus 8.73467 13.5593 -86.4167
rradius 47.1319
rwrist 5.28732
rhand -23.4042 -28.2224
rfingers 7.12502
rthumb 3.05274 -58.1803
lclavicle 6.36111e-015 -3.49861e-014
lhumerus 54.4648 30.0629 63.8002
lradius 22.8071
lwrist -15.3396
lhand -14.7819 37.9979
lfingers 7.12502
lthumb 11.3751 67.6693
rfemur -66.1821 -7.804 46.9093
rtibia 65.816
rfoot -29.6982 -17.0336
rtoes -21.0916
lfemur -99.4115 16.2738 6.40926
ltibia 43.4203
lfoot 3.86944 6.74645
ltoes -10.195
321
root 5.57623 15.6366 2.31945 70.7625 -50.2944 -28.1614
lowerback 34.6493 -0.999835 -0.936339
upperback 15.6946 -2.90614 -4.67132
thorax -0.565251 -1.66513 -3.4905
lowerneck -12.5036 5.17455 -3.55067
upperneck -6.81847 7.55855 7.20066
head -0.489585 3.92187 3.17985
rclavicle 5.08889e-014 1.90833e-014
rhumerus 8.49302 13.6645 -86.7045
rradius 47.5864
rwrist 5.07232
rhand -23.4148 -28.1997
rfingers 7.12502
rthumb 3.04254 -58.1577
lclavicle 5.08889e-014 1.90833e-014
lhumerus 56.4932 30.6024 65.0634
lradius 21.7991
lwrist -16.5822
lhand -15.0388 38.3862
lfingers 7.12502
lthumb 11.1273 68.0712
rfemur -66.1488 -7.73069 47.1708
rtibia 66.0741
rfoot -29.5559 -17.2569
rtoes -21.5586
lfemur -100.129 16.3338 6.03574
ltibia 43.8547
lfoot 4.23186 6.44882
ltoes -9.53115
322
root 5.40094 15.6253 2.37657 70.9094 -49.7961 -27.8045
lowerback 34.6791 -1.08803 -1.02265
upperback 15.6624 -3.03221 -4.86487
thorax -0.627039 -1.71288 -3.60647
lowerneck -12.5402 5.00166 -3.65436
upperneck -7.06457 7.36217 7.69372
head -0.574976 3.82226 3.36153
rclavicle -3.18055e-014 -3.02153e-014
rhumerus 8.23819 13.7684 -86.9974
rradius 48.0383
rwrist 4.86628
rhand -23.3979 -28.1519
rfingers 7.12502
rthumb 3.05887 -58.1097
lclavicle -3.18055e-014 -3.02153e-014
lhumerus 58.5227 31.1316 66.4589
lradius 20.8091
lwrist -17.9234
lhand -15.265 38.74
lfingers 7.12502
lthumb 10.9092 68.4366
rfemur -66.1181 -7.65628 47.4011
rtibia 66.3303
rfoot -29.3275 -17.4355
rtoes -21.9765
lfemur -100.822 16.3742 5.64682
ltibia 44.3631
lfoot 4.52708 6.14744
ltoes -8.89028
323
root 5.22561 15.6172 2.436 71.0494 -49.3155 -27.4456
lowerback 34.7233 -1.17528 -1.11293
upperback 15.6267 -3.15863 -5.04849
thorax -0.697348 -1.76147 -3.70924
lowerneck -12.5706 4.81232 -3.7742
upperneck -7.3134 7.1472 8.20424
head -0.661553 3.71258 3.55399
rclavicle 3.81667e-014 3.26007e-014
rhumerus 7.97163 13.8709 -87.2778
rradius 48.4897
rwrist 4.66629
rhand -23.3563 -28.0762
rfingers 7.12502
rthumb 3.09905 -58.0334
lclavicle 3.81667e-014 3.26007e-014
lhumerus 60.5494 31.6484 68.003
lradius 19.8438
lwrist -19.3606
lhand -15.4634 39.0606
lfingers 7.12502
lthumb 10.7178 68.7672
rfemur -66.0928 -7.58252 47.6003
rtibia 66.5859
rfoot -29.0099 -17.5682
rtoes -22.3375
lfemur -101.485 16.3952 5.24868
ltibia 44.9343
lfoot 4.7508 5.84754
ltoes -8.28241
